# xmcd
#
# Track frame offsets:
#	150
#	13492
#	28312
#	40622
#	52967
#	69632
#	80982
#	92757
#	104745
#	118100
#	130762
#	143147
#	157955
#	173570
#	185230
#	199770
#	230240
#	247690
#	262752
#	287247
#	305557
#	325177
#	342485
#
# Disc length: 4773 seconds
#
# Revision: 7
# Processed by: cddbd v1.5.2PL0 Copyright (c) Steve Scherf et al.
# Submitted via: EasyCDDAExtractor 15.3.0.1
#
DISCID=5812a317
DTITLE=Cher - Essential Collection
DYEAR=2001
DGENRE=Pop/Rock
TTITLE0=All I Really Want To Do
TTITLE1=Where Do You Go
TTITLE2=Bang Bang (My Baby Shot Me Down)
TTITLE3=Alfie (From The Movie Alfie)
TTITLE4=You Better Sit Down Kids
TTITLE5=The Way Of Love
TTITLE6=Gypsys, Tramps and Thieves
TTITLE7=All I Ever Need Is You (Sonny and Cher)
TTITLE8=Living In A House Divided
TTITLE9=Don't Hide Your Love
TTITLE10=Half Breed
TTITLE11=A Cowboy's Work Is Never Done (Sonny and Cher)
TTITLE12=Dark Lady
TTITLE13=Train Of Thought
TTITLE14=I Saw A Man And He Danced With His Wife
TTITLE15=Take Me Home
TTITLE16=Wasn't It Good
TTITLE17=Hell On Wheels
TTITLE18=Bad Love (From The Movie Foxes)
TTITLE19=Young And Pretty (Black Rose)
TTITLE20=Dead Ringer For Love (Meat Loaf and Cher)
TTITLE21=Rudy
TTITLE22=I Got You Babe (Live) (Sonny and Cher)
EXTD=
EXTT0=
EXTT1=
EXTT2=
EXTT3=
EXTT4=
EXTT5=
EXTT6=
EXTT7=
EXTT8=
EXTT9=
EXTT10=
EXTT11=
EXTT12=
EXTT13=
EXTT14=
EXTT15=
EXTT16=
EXTT17=
EXTT18=
EXTT19=
EXTT20=
EXTT21=
EXTT22=
PLAYORDER=
